# Blender v2.78 (sub 0) OBJ File: 'lamp_post2.blend'
# www.blender.org
mtllib lamp_post2.mtl
o Cube
v 1.000000 -0.013931 -1.000000
v 1.000000 -0.013931 1.000000
v -1.000000 -0.013931 1.000000
v -1.000000 -0.013931 -1.000000
v 0.563865 9.966660 -0.563865
v 0.563865 9.966660 0.563865
v -0.563865 9.966660 0.563865
v -0.563865 9.966660 -0.563865
vt 0.1677 0.3016
vt 0.5181 0.0001
vt 0.2908 0.3325
vt 0.2273 0.9999
vt 0.0904 0.8170
vt 0.1676 0.8177
vt 0.0001 0.0105
vt 0.6850 0.8340
vt 0.5184 0.0074
vt 0.6850 0.0001
vt 0.0001 0.9363
vt 0.7782 0.8433
vt 0.6853 0.8288
vt 0.7782 0.0001
vn 0.0000 -1.0000 0.0000
vn 0.0000 1.0000 0.0000
vn 0.9990 0.0437 0.0000
vn 0.0000 0.0437 0.9990
vn -0.9990 0.0437 0.0000
vn 0.0000 0.0437 -0.9990
usemtl Material
s off
f 2/1/1 4/2/1 1/3/1
f 8/4/2 6/5/2 5/6/2
f 5/6/3 2/1/3 1/3/3
f 6/5/4 3/7/4 2/1/4
f 7/8/5 4/9/5 3/10/5
f 1/3/6 8/4/6 5/6/6
f 5/6/3 6/5/3 2/1/3
f 6/5/4 7/11/4 3/7/4
f 7/12/5 8/13/5 4/14/5
f 1/3/6 4/2/6 8/4/6
f 2/1/1 3/7/1 4/2/1
f 8/4/2 7/11/2 6/5/2
