# Blender v2.78 (sub 0) OBJ File: 'lamp_post.blend'
# www.blender.org
o Cube
v -1.000000 0.000000 1.000000
v -0.511005 12.145554 0.511005
v -1.000000 0.000000 -1.000000
v -0.511005 12.145554 -0.511005
v 1.000000 0.000000 1.000000
v 0.511005 12.145554 0.511005
v 1.000000 0.000000 -1.000000
v 0.511005 12.145554 -0.511005
vt 0.0725 0.8671
vt 0.0001 0.0125
vt 0.1513 0.2771
vt 0.5803 0.8966
vt 0.4688 0.0001
vt 0.6163 0.0001
vt 0.1927 0.9981
vt 0.2704 0.3057
vt 0.4686 0.0001
vt 0.1381 0.8811
vt 0.0001 0.9999
vt 0.5049 0.8966
vn -0.9992 0.0402 0.0000
vn 0.0000 0.0402 -0.9992
vn 0.9992 0.0402 0.0000
vn 0.0000 0.0402 0.9992
vn 0.0000 -1.0000 0.0000
vn 0.0000 1.0000 0.0000
s off
f 2/1/1 3/2/1 1/3/1
f 4/4/2 7/5/2 3/6/2
f 8/7/3 5/8/3 7/9/3
f 6/10/4 1/3/4 5/8/4
f 7/9/5 1/3/5 3/2/5
f 4/11/6 6/10/6 8/7/6
f 2/1/1 4/11/1 3/2/1
f 4/4/2 8/12/2 7/5/2
f 8/7/3 6/10/3 5/8/3
f 6/10/4 2/1/4 1/3/4
f 7/9/5 5/8/5 1/3/5
f 4/11/6 2/1/6 6/10/6
